<svg width="160" height="47" viewBox="0 0 174 52" fill="none" xmlns="http://www.w3.org/2000/svg">
<path d="M72.3438 34.8906H66.5469V31.2344H72.3438C73.2396 31.2344 73.9688 31.0885 74.5312 30.7969C75.0938 30.4948 75.5052 30.0781 75.7656 29.5469C76.026 29.0156 76.1562 28.4167 76.1562 27.75C76.1562 27.0729 76.026 26.4427 75.7656 25.8594C75.5052 25.276 75.0938 24.8073 74.5312 24.4531C73.9688 24.099 73.2396 23.9219 72.3438 23.9219H68.1719V43H63.4844V20.25H72.3438C74.125 20.25 75.651 20.5729 76.9219 21.2188C78.2031 21.8542 79.1823 22.7344 79.8594 23.8594C80.5365 24.9844 80.875 26.2708 80.875 27.7188C80.875 29.1875 80.5365 30.4583 79.8594 31.5312C79.1823 32.6042 78.2031 33.4323 76.9219 34.0156C75.651 34.599 74.125 34.8906 72.3438 34.8906ZM91.3906 43.3125C90.0781 43.3125 88.901 43.1042 87.8594 42.6875C86.8177 42.2604 85.9323 41.6719 85.2031 40.9219C84.4844 40.1719 83.9323 39.3021 83.5469 38.3125C83.1615 37.3125 82.9688 36.25 82.9688 35.125V34.5C82.9688 33.2188 83.151 32.0469 83.5156 30.9844C83.8802 29.9219 84.401 29 85.0781 28.2188C85.7656 27.4375 86.599 26.8385 87.5781 26.4219C88.5573 25.9948 89.6615 25.7812 90.8906 25.7812C92.0885 25.7812 93.151 25.9792 94.0781 26.375C95.0052 26.7708 95.7812 27.3333 96.4062 28.0625C97.0417 28.7917 97.5208 29.6667 97.8438 30.6875C98.1667 31.6979 98.3281 32.8229 98.3281 34.0625V35.9375H84.8906V32.9375H93.9062V32.5938C93.9062 31.9688 93.7917 31.4115 93.5625 30.9219C93.3438 30.4219 93.0104 30.026 92.5625 29.7344C92.1146 29.4427 91.5417 29.2969 90.8438 29.2969C90.25 29.2969 89.7396 29.4271 89.3125 29.6875C88.8854 29.9479 88.5365 30.3125 88.2656 30.7812C88.0052 31.25 87.8073 31.8021 87.6719 32.4375C87.5469 33.0625 87.4844 33.75 87.4844 34.5V35.125C87.4844 35.8021 87.5781 36.4271 87.7656 37C87.9635 37.5729 88.2396 38.0677 88.5938 38.4844C88.9583 38.901 89.3958 39.224 89.9062 39.4531C90.4271 39.6823 91.0156 39.7969 91.6719 39.7969C92.4844 39.7969 93.2396 39.6406 93.9375 39.3281C94.6458 39.0052 95.2552 38.5208 95.7656 37.875L97.9531 40.25C97.599 40.7604 97.1146 41.25 96.5 41.7188C95.8958 42.1875 95.1667 42.5729 94.3125 42.875C93.4583 43.1667 92.4844 43.3125 91.3906 43.3125ZM109.172 26.0938V29.2812H99.3281V26.0938H109.172ZM101.766 21.9219H106.266V37.9062C106.266 38.3958 106.328 38.7708 106.453 39.0312C106.589 39.2917 106.786 39.474 107.047 39.5781C107.307 39.6719 107.635 39.7188 108.031 39.7188C108.312 39.7188 108.562 39.7083 108.781 39.6875C109.01 39.6562 109.203 39.625 109.359 39.5938L109.375 42.9062C108.99 43.0312 108.573 43.1302 108.125 43.2031C107.677 43.276 107.182 43.3125 106.641 43.3125C105.651 43.3125 104.786 43.151 104.047 42.8281C103.318 42.4948 102.755 41.9635 102.359 41.2344C101.964 40.5052 101.766 39.5469 101.766 38.3594V21.9219ZM123.859 37.0469C123.859 36.6406 123.797 36.276 123.672 35.9531C123.557 35.6198 123.339 35.3177 123.016 35.0469C122.693 34.7656 122.24 34.4896 121.656 34.2188C121.073 33.9479 120.318 33.6667 119.391 33.375C118.359 33.0417 117.38 32.6667 116.453 32.25C115.536 31.8333 114.724 31.349 114.016 30.7969C113.318 30.2344 112.766 29.5833 112.359 28.8438C111.964 28.1042 111.766 27.2448 111.766 26.2656C111.766 25.3177 111.974 24.4583 112.391 23.6875C112.807 22.9062 113.391 22.2396 114.141 21.6875C114.891 21.125 115.776 20.6927 116.797 20.3906C117.828 20.0885 118.958 19.9375 120.188 19.9375C121.865 19.9375 123.328 20.2396 124.578 20.8438C125.828 21.4479 126.797 22.276 127.484 23.3281C128.182 24.3802 128.531 25.5833 128.531 26.9375H123.875C123.875 26.2708 123.734 25.6875 123.453 25.1875C123.182 24.6771 122.766 24.276 122.203 23.9844C121.651 23.6927 120.953 23.5469 120.109 23.5469C119.297 23.5469 118.62 23.6719 118.078 23.9219C117.536 24.1615 117.13 24.4896 116.859 24.9062C116.589 25.3125 116.453 25.7708 116.453 26.2812C116.453 26.6667 116.547 27.0156 116.734 27.3281C116.932 27.6406 117.224 27.9323 117.609 28.2031C117.995 28.474 118.469 28.7292 119.031 28.9688C119.594 29.2083 120.245 29.4427 120.984 29.6719C122.224 30.0469 123.312 30.4688 124.25 30.9375C125.198 31.4062 125.99 31.9323 126.625 32.5156C127.26 33.099 127.74 33.7604 128.062 34.5C128.385 35.2396 128.547 36.0781 128.547 37.0156C128.547 38.0052 128.354 38.8906 127.969 39.6719C127.583 40.4531 127.026 41.1146 126.297 41.6562C125.568 42.1979 124.698 42.6094 123.688 42.8906C122.677 43.1719 121.547 43.3125 120.297 43.3125C119.172 43.3125 118.062 43.1667 116.969 42.875C115.875 42.5729 114.88 42.1198 113.984 41.5156C113.099 40.9115 112.391 40.1406 111.859 39.2031C111.328 38.2656 111.062 37.1562 111.062 35.875H115.766C115.766 36.5833 115.875 37.1823 116.094 37.6719C116.312 38.1615 116.62 38.5573 117.016 38.8594C117.422 39.1615 117.901 39.3802 118.453 39.5156C119.016 39.651 119.63 39.7188 120.297 39.7188C121.109 39.7188 121.776 39.6042 122.297 39.375C122.828 39.1458 123.219 38.8281 123.469 38.4219C123.729 38.0156 123.859 37.5573 123.859 37.0469ZM139.734 26.0938V29.2812H129.891V26.0938H139.734ZM132.328 21.9219H136.828V37.9062C136.828 38.3958 136.891 38.7708 137.016 39.0312C137.151 39.2917 137.349 39.474 137.609 39.5781C137.87 39.6719 138.198 39.7188 138.594 39.7188C138.875 39.7188 139.125 39.7083 139.344 39.6875C139.573 39.6562 139.766 39.625 139.922 39.5938L139.938 42.9062C139.552 43.0312 139.135 43.1302 138.688 43.2031C138.24 43.276 137.745 43.3125 137.203 43.3125C136.214 43.3125 135.349 43.151 134.609 42.8281C133.88 42.4948 133.318 41.9635 132.922 41.2344C132.526 40.5052 132.328 39.5469 132.328 38.3594V21.9219ZM151.422 39.1875V31.6562C151.422 31.1146 151.333 30.651 151.156 30.2656C150.979 29.8698 150.703 29.5625 150.328 29.3438C149.964 29.125 149.49 29.0156 148.906 29.0156C148.406 29.0156 147.974 29.1042 147.609 29.2812C147.245 29.4479 146.964 29.6927 146.766 30.0156C146.568 30.3281 146.469 30.6979 146.469 31.125H141.969C141.969 30.4062 142.135 29.724 142.469 29.0781C142.802 28.4323 143.286 27.8646 143.922 27.375C144.557 26.875 145.312 26.4844 146.188 26.2031C147.073 25.9219 148.062 25.7812 149.156 25.7812C150.469 25.7812 151.635 26 152.656 26.4375C153.677 26.875 154.479 27.5312 155.062 28.4062C155.656 29.2812 155.953 30.375 155.953 31.6875V38.9219C155.953 39.849 156.01 40.6094 156.125 41.2031C156.24 41.7865 156.406 42.2969 156.625 42.7344V43H152.078C151.859 42.5417 151.693 41.9688 151.578 41.2812C151.474 40.5833 151.422 39.8854 151.422 39.1875ZM152.016 32.7031L152.047 35.25H149.531C148.938 35.25 148.422 35.3177 147.984 35.4531C147.547 35.5885 147.188 35.7812 146.906 36.0312C146.625 36.2708 146.417 36.5521 146.281 36.875C146.156 37.1979 146.094 37.5521 146.094 37.9375C146.094 38.3229 146.182 38.6719 146.359 38.9844C146.536 39.2865 146.792 39.526 147.125 39.7031C147.458 39.8698 147.849 39.9531 148.297 39.9531C148.974 39.9531 149.562 39.8177 150.062 39.5469C150.562 39.276 150.948 38.9427 151.219 38.5469C151.5 38.151 151.646 37.776 151.656 37.4219L152.844 39.3281C152.677 39.7552 152.448 40.1979 152.156 40.6562C151.875 41.1146 151.516 41.5469 151.078 41.9531C150.641 42.349 150.115 42.6771 149.5 42.9375C148.885 43.1875 148.156 43.3125 147.312 43.3125C146.24 43.3125 145.266 43.099 144.391 42.6719C143.526 42.2344 142.839 41.6354 142.328 40.875C141.828 40.1042 141.578 39.2292 141.578 38.25C141.578 37.3646 141.745 36.5781 142.078 35.8906C142.411 35.2031 142.901 34.625 143.547 34.1562C144.203 33.6771 145.021 33.3177 146 33.0781C146.979 32.8281 148.115 32.7031 149.406 32.7031H152.016ZM164.188 41.0938L168.672 26.0938H173.5L166.703 45.5469C166.557 45.974 166.359 46.4323 166.109 46.9219C165.87 47.4115 165.542 47.875 165.125 48.3125C164.719 48.7604 164.203 49.125 163.578 49.4062C162.964 49.6875 162.208 49.8281 161.312 49.8281C160.885 49.8281 160.536 49.8021 160.266 49.75C159.995 49.6979 159.672 49.625 159.297 49.5312V46.2344C159.411 46.2344 159.531 46.2344 159.656 46.2344C159.781 46.2448 159.901 46.25 160.016 46.25C160.609 46.25 161.094 46.1823 161.469 46.0469C161.844 45.9115 162.146 45.7031 162.375 45.4219C162.604 45.151 162.786 44.7969 162.922 44.3594L164.188 41.0938ZM162.312 26.0938L165.984 38.3438L166.625 43.1094L163.562 43.4375L157.484 26.0938H162.312Z" fill="#059669"/>
<path d="M16.5324 1.44877C14.7777 -0.149052 11.8698 -0.55992 10.1652 0.900945L0.789709 9.43787C-0.664238 10.7618 -0.0124687 12.9531 1.94284 13.4096L3.54719 13.7748C7.60822 14.7335 11.7194 12.5422 12.8224 8.89005L13.8251 5.37484C13.9755 4.87267 14.527 4.59876 15.0284 4.73572C15.5799 4.87267 15.8807 5.37484 15.7303 5.83136L14.878 8.75309C16.5826 7.88571 18.5379 7.38353 20.6436 7.38353H23L16.5324 1.44877Z" fill="#059669"/>
<path d="M44.2343 1.44877C45.9128 -0.149052 48.6942 -0.55992 50.3248 0.900945L59.2446 9.43787C60.6354 10.7618 60.0119 12.9531 58.1416 13.4096L56.607 13.7748C52.7226 14.7335 48.7902 12.5422 47.7351 8.89005L46.776 5.37484C46.6321 4.87267 46.1046 4.59876 45.625 4.73572C45.1455 4.87267 44.8098 5.37484 44.9537 5.83136L45.7689 8.75309C44.1384 7.88571 42.2681 7.38353 40.2539 7.38353H38L44.2343 1.44877Z" fill="#059669"/>
<path d="M49.5748 24.0787V19.3071C49.5748 14.2047 45.1699 10 39.8245 10H20.225C14.8796 10 10.4747 14.2047 10.4747 19.3071V24.0787C8.94038 26.0157 8 28.4724 8 31.1654V38.2047C8 44.0158 12.4049 48.8819 18.2452 49.874C18.2947 49.874 18.2947 49.874 18.3442 49.874C18.4927 49.9213 18.6412 49.9213 18.8391 49.9213C19.1361 49.9685 19.4331 49.9685 19.73 50.0157C19.829 50.0157 19.928 50.0157 19.9775 50.0157C20.0765 50.0157 20.126 50.0157 20.225 50.0157H20.4724H24.1845C25.7683 51.2913 27.748 52 29.9753 52C32.2025 52 34.1822 51.2441 35.766 50.0157H39.5276H39.775C39.874 50.0157 39.9235 50.0157 40.0225 50.0157C40.1215 50.0157 40.2205 50.0157 40.27 50.0157C40.5669 50.0157 40.8639 49.9685 41.1609 49.9213C41.3093 49.9213 41.4578 49.874 41.6558 49.874C41.7053 49.874 41.7053 49.874 41.7548 49.874C47.5456 48.8819 52 44.0158 52 38.2047V31.1654C52 28.5197 51.1091 26.063 49.5748 24.0787ZM39.1316 18.315C40.9134 18.315 42.3982 19.7323 42.3982 21.4331C42.3982 23.1339 40.9134 24.5512 39.1316 24.5512C37.3498 24.5512 35.865 23.1339 35.865 21.4331C35.9145 19.685 37.3498 18.315 39.1316 18.315ZM20.8189 18.315C22.6007 18.315 24.0855 19.7323 24.0855 21.4331C24.0855 23.1339 22.6007 24.5512 20.8189 24.5512C19.0371 24.5512 17.5523 23.1339 17.5523 21.4331C17.6018 19.685 19.0371 18.315 20.8189 18.315ZM29.9753 50.063C26.3127 50.063 23.2441 47.3228 23.0461 43.7795C25.3228 43.7795 27.4511 43.0236 29.1339 41.6535V46.6614C29.1339 47.1339 29.4803 47.5118 30.0247 47.5118C30.5692 47.5118 30.9156 47.1811 30.9156 46.6614V41.6535C32.5984 42.9764 34.7267 43.7795 37.0034 43.7795C36.7064 47.2756 33.6378 50.063 29.9753 50.063ZM46.6547 34.1417C46.6547 38.7717 42.6952 42.5512 37.8448 42.5512C34.4297 42.5512 31.5096 40.7087 30.0247 37.9685C28.5399 40.6614 25.6198 42.5512 22.2047 42.5512C17.3543 42.5512 13.3948 38.7717 13.3948 34.1417V31.4016C13.3948 30.8819 13.7908 30.4567 14.3847 30.4567C14.9786 30.4567 15.3746 30.8346 15.3746 31.4016V34.1417C15.3746 37.7323 18.4432 40.6614 22.2047 40.6614C25.6693 40.6614 28.4904 38.2047 28.9854 34.9921C28.9359 34.9449 28.9359 34.9449 28.8864 34.8976L24.9269 29.1811C24.3825 28.4252 25.0259 27.5276 26.0652 27.5276H33.9843C34.9741 27.5276 35.6175 28.4252 35.1226 29.1811L31.1631 34.8976C31.1631 34.9449 31.1136 34.9449 31.0641 34.9921C31.5591 38.2047 34.3802 40.6614 37.8448 40.6614C41.6063 40.6614 44.6749 37.7323 44.6749 34.1417V31.4016C44.6749 30.8819 45.0709 30.4567 45.6648 30.4567C46.2587 30.4567 46.6547 30.8346 46.6547 31.4016V34.1417Z" fill="#059669"/>
</svg>
