<svg width="102" height="92" viewBox="0 0 102 92" fill="none" xmlns="http://www.w3.org/2000/svg">
<path d="M28.1052 2.56321C25.1221 -0.263708 20.1786 -0.990629 17.2808 1.59398L1.3425 16.6978C-1.1292 19.0401 -0.0211968 22.917 3.30283 23.7247L6.03023 24.3708C12.934 26.067 19.9229 22.1901 21.798 15.7286L23.5027 9.50934C23.7584 8.62088 24.6959 8.13627 25.5482 8.37857C26.4858 8.62088 26.9971 9.50934 26.7415 10.317L25.2925 15.4862C28.1904 13.9516 31.5144 13.0632 35.0941 13.0632H39.1L28.1052 2.56321Z" fill="#059669"/>
<path d="M75.1984 2.56321C78.0518 -0.263708 82.7803 -0.990629 85.5522 1.59398L100.716 16.6978C103.08 19.0401 102.02 22.917 98.8409 23.7247L96.232 24.3708C89.6285 26.067 82.9434 22.1901 81.1498 15.7286L79.5193 9.50934C79.2747 8.62088 78.3779 8.13627 77.5627 8.37857C76.7474 8.62088 76.1767 9.50934 76.4213 10.317L77.8073 15.4862C75.0354 13.9516 71.8559 13.0632 68.4318 13.0632H64.6001L75.1984 2.56321Z" fill="#059669"/>
<path d="M84.2773 42.6008V34.1587C84.2773 25.1314 76.7888 17.6923 67.7018 17.6923H34.3825C25.2955 17.6923 17.8071 25.1314 17.8071 34.1587V42.6008C15.1987 46.0279 13.6001 50.3743 13.6001 55.1387V67.593C13.6001 77.874 21.0885 86.4833 31.017 88.2386C31.1011 88.2386 31.1011 88.2386 31.1852 88.2386C31.4377 88.3222 31.6901 88.3222 32.0266 88.3222C32.5315 88.4058 33.0363 88.4058 33.5412 88.4894C33.7094 88.4894 33.8777 88.4894 33.9619 88.4894C34.1301 88.4894 34.2143 88.4894 34.3825 88.4894H34.8032H41.1137C43.8062 90.7462 47.1717 92 50.958 92C54.7443 92 58.1099 90.6626 60.8023 88.4894H67.1969H67.6176C67.7859 88.4894 67.8701 88.4894 68.0383 88.4894C68.2066 88.4894 68.3749 88.4894 68.459 88.4894C68.9639 88.4894 69.4687 88.4058 69.9735 88.3222C70.226 88.3222 70.4784 88.2386 70.8149 88.2386C70.8991 88.2386 70.8991 88.2386 70.9832 88.2386C80.8275 86.4833 88.4001 77.874 88.4001 67.593V55.1387C88.4001 50.4579 86.8856 46.1114 84.2773 42.6008ZM66.5238 32.4034C69.5529 32.4034 72.077 34.911 72.077 37.92C72.077 40.9291 69.5529 43.4367 66.5238 43.4367C63.4948 43.4367 60.9706 40.9291 60.9706 37.92C61.0548 34.8274 63.4948 32.4034 66.5238 32.4034ZM35.3922 32.4034C38.4212 32.4034 40.9454 34.911 40.9454 37.92C40.9454 40.9291 38.4212 43.4367 35.3922 43.4367C32.3632 43.4367 29.839 40.9291 29.839 37.92C29.9232 34.8274 32.3632 32.4034 35.3922 32.4034ZM50.958 88.573C44.7317 88.573 39.5151 83.725 39.1785 77.4561C43.0489 77.4561 46.6669 76.1187 49.5277 73.6947V82.5548C49.5277 83.3907 50.1166 84.0594 51.0422 84.0594C51.9677 84.0594 52.5567 83.4743 52.5567 82.5548V73.6947C55.4174 76.0351 59.0354 77.4561 62.9058 77.4561C62.401 83.6414 57.1843 88.573 50.958 88.573ZM79.313 60.4046C79.313 68.596 72.5819 75.2829 64.3362 75.2829C58.5306 75.2829 53.5663 72.023 51.0422 67.175C48.518 71.9394 43.5538 75.2829 37.7481 75.2829C29.5025 75.2829 22.7713 68.596 22.7713 60.4046V55.5566C22.7713 54.6372 23.4444 53.8849 24.4541 53.8849C25.4638 53.8849 26.1369 54.5536 26.1369 55.5566V60.4046C26.1369 66.7571 31.3535 71.9394 37.7481 71.9394C43.6379 71.9394 48.4338 67.593 49.2752 61.9091C49.1911 61.8256 49.1911 61.8256 49.107 61.742L42.3758 51.6281C41.4503 50.2907 42.5441 48.7026 44.311 48.7026H57.7733C59.4561 48.7026 60.5499 50.2907 59.7085 51.6281L52.9774 61.742C52.9774 61.8256 52.8932 61.8256 52.8091 61.9091C53.6505 67.593 58.4464 71.9394 64.3362 71.9394C70.7308 71.9394 75.9474 66.7571 75.9474 60.4046V55.5566C75.9474 54.6372 76.6206 53.8849 77.6302 53.8849C78.6399 53.8849 79.313 54.5536 79.313 55.5566V60.4046Z" fill="#059669"/>
</svg>
